<svg xmlns="http://www.w3.org/2000/svg" viewBox="0 0 320 360" fill="none" aria-hidden="true">
  <!-- Contorno do Brasil (projeťťo equiretangular a partir de GeoJSON pťblico) -->
  <path
    fill="#0071B9"
    fill-opacity="1"
    d="M 134.70 320.68 L 145.04 308.66 L 153.78 300.10 L 158.98 296.51 L 165.50 291.64 L 165.66 284.60 L 161.77 279.51 L 157.93 281.20 L 159.46 276.11 L 160.50 270.90 L 160.51 266.05 L 157.72 264.45 L 154.82 265.88 L 151.93 265.49 L 151.02 262.09 L 150.30 254.01 L 148.85 251.38 L 143.62 248.99 L 140.46 250.72 L 132.29 249.03 L 132.80 237.06 L 130.51 232.15 L 132.93 230.33 L 132.19 225.31 L 134.31 221.44 L 135.69 214.50 L 133.86 209.01 L 129.63 206.54 L 128.80 203.06 L 129.93 197.97 L 115.09 197.60 L 112.11 187.34 L 114.37 187.19 L 114.27 183.39 L 112.76 180.81 L 112.42 175.71 L 107.92 173.10 L 103.05 173.19 L 99.84 170.63 L 94.61 168.88 L 91.56 165.58 L 82.89 164.13 L 74.48 156.23 L 75.10 150.32 L 74.15 146.93 L 74.97 140.32 L 64.84 141.81 L 60.76 145.13 L 53.99 148.70 L 52.26 151.37 L 48.28 151.56 L 42.52 150.81 L 38.15 152.33 L 34.63 151.32 L 35.14 137.92 L 28.79 143.12 L 21.96 142.89 L 19.03 138.19 L 13.89 137.68 L 15.53 133.89 L 11.22 128.53 L 8.00 120.59 L 10.04 118.97 L 10.03 115.25 L 14.72 112.70 L 13.94 107.94 L 15.92 104.87 L 16.48 100.75 L 25.34 94.75 L 31.68 93.06 L 32.72 91.73 L 39.70 92.14 L 43.18 67.97 L 43.36 64.14 L 42.15 59.09 L 38.72 55.88 L 38.76 49.47 L 43.12 48.02 L 44.67 48.93 L 44.93 45.55 L 40.39 44.64 L 40.29 39.12 L 55.38 39.32 L 57.94 36.28 L 60.09 39.08 L 61.60 44.28 L 63.07 43.19 L 67.33 47.86 L 73.35 47.28 L 74.85 44.59 L 80.61 42.53 L 83.80 41.08 L 84.70 37.35 L 90.23 34.84 L 89.81 32.98 L 83.25 32.23 L 82.17 26.67 L 82.49 20.76 L 79.02 18.48 L 80.47 17.66 L 86.20 18.79 L 92.36 21.00 L 94.60 18.91 L 100.17 17.54 L 108.83 14.24 L 111.66 10.88 L 110.63 8.39 L 114.66 8.00 L 116.46 10.03 L 115.45 13.90 L 118.12 15.24 L 119.89 19.34 L 117.74 22.44 L 116.51 29.95 L 118.49 34.41 L 119.06 38.49 L 123.82 42.62 L 127.62 43.06 L 128.48 41.34 L 130.92 40.95 L 134.43 39.41 L 136.95 37.06 L 141.23 37.81 L 143.11 37.49 L 147.32 38.22 L 148.02 36.41 L 146.72 34.66 L 147.50 32.11 L 150.62 32.89 L 154.28 31.99 L 158.71 33.86 L 162.10 35.68 L 164.49 33.29 L 166.22 33.66 L 167.28 36.14 L 170.99 35.51 L 173.96 32.16 L 176.33 25.67 L 180.91 17.60 L 183.55 17.18 L 185.47 22.06 L 189.81 37.48 L 193.95 38.93 L 194.16 45.02 L 188.34 52.28 L 190.75 54.94 L 204.43 56.32 L 204.71 65.16 L 210.60 59.37 L 220.34 62.54 L 233.20 67.93 L 236.98 73.09 L 235.71 77.97 L 244.72 75.26 L 259.79 79.92 L 271.36 79.58 L 282.80 86.87 L 292.69 96.75 L 298.66 99.30 L 305.28 99.65 L 308.09 102.43 L 310.71 113.66 L 312.00 118.99 L 308.92 133.57 L 304.98 139.33 L 294.06 151.60 L 289.13 161.56 L 283.40 169.21 L 281.46 169.38 L 279.30 175.87 L 279.85 192.39 L 277.69 205.98 L 276.86 211.79 L 274.42 215.27 L 273.04 227.06 L 265.19 238.57 L 263.87 247.68 L 257.61 251.50 L 255.79 256.78 L 247.38 256.76 L 235.20 260.15 L 229.74 264.07 L 221.07 266.65 L 211.96 273.67 L 205.40 282.42 L 204.28 289.00 L 205.56 293.87 L 204.12 302.78 L 202.36 307.08 L 196.95 311.93 L 188.36 327.45 L 181.55 334.45 L 176.28 338.57 L 172.75 346.96 L 167.63 352.00 L 165.48 347.01 L 168.90 342.82 L 164.42 336.82 L 158.34 331.95 L 150.38 326.30 L 147.50 326.56 L 139.73 319.74 L 134.70 320.68 Z"
  />
</svg>
